<mxfile modified="2021-09-22T03:11:36.830Z" host="app.diagrams.net" agent="5.0 (Windows NT 10.0; Win64; x64) AppleWebKit/537.36 (KHTML, like Gecko) Chrome/93.0.4577.82 Safari/537.36 Edg/93.0.961.52" etag="7P0-cGGTn11K9p_Chtvm" version="15.2.9" type="github">
  <diagram id="Ht1M8jgEwFfnCIfOTk4-" name="Page-1">
    <mxGraphModel dx="4013" dy="2435" grid="1" gridSize="10" guides="1" tooltips="1" connect="1" arrows="1" fold="1" page="1" pageScale="1" pageWidth="1169" pageHeight="827" math="0" shadow="0">
      <root>
        <mxCell id="0" />
        <mxCell id="1" parent="0" />
        <mxCell id="_OcU6w5XzlBbNJ40GL1S-2" value="VPC" style="sketch=0;outlineConnect=0;gradientColor=none;html=1;whiteSpace=wrap;fontSize=12;fontStyle=0;shape=mxgraph.aws4.group;grIcon=mxgraph.aws4.group_vpc;strokeColor=#879196;fillColor=none;verticalAlign=top;align=left;spacingLeft=30;fontColor=#879196;dashed=0;" parent="1" vertex="1">
          <mxGeometry x="30" y="-30" width="1130" height="1300" as="geometry" />
        </mxCell>
        <mxCell id="_OcU6w5XzlBbNJ40GL1S-28" value="AWS Cloud" style="points=[[0,0],[0.25,0],[0.5,0],[0.75,0],[1,0],[1,0.25],[1,0.5],[1,0.75],[1,1],[0.75,1],[0.5,1],[0.25,1],[0,1],[0,0.75],[0,0.5],[0,0.25]];outlineConnect=0;gradientColor=none;html=1;whiteSpace=wrap;fontSize=12;fontStyle=0;shape=mxgraph.aws4.group;grIcon=mxgraph.aws4.group_aws_cloud_alt;strokeColor=#232F3E;fillColor=none;verticalAlign=top;align=left;spacingLeft=30;fontColor=#232F3E;dashed=0;" parent="1" vertex="1">
          <mxGeometry x="-150" y="-100" width="2740" height="1410" as="geometry" />
        </mxCell>
        <mxCell id="_OcU6w5XzlBbNJ40GL1S-1" value="Region" style="points=[[0,0],[0.25,0],[0.5,0],[0.75,0],[1,0],[1,0.25],[1,0.5],[1,0.75],[1,1],[0.75,1],[0.5,1],[0.25,1],[0,1],[0,0.75],[0,0.5],[0,0.25]];outlineConnect=0;gradientColor=none;html=1;whiteSpace=wrap;fontSize=12;fontStyle=0;shape=mxgraph.aws4.group;grIcon=mxgraph.aws4.group_region;strokeColor=#147EBA;fillColor=none;verticalAlign=top;align=left;spacingLeft=30;fontColor=#147EBA;dashed=1;" parent="1" vertex="1">
          <mxGeometry x="-5" y="-70" width="1180" height="1350" as="geometry" />
        </mxCell>
        <mxCell id="vkCUaWgb7GZXVAcVjA3E-25" value="Availability zone" style="sketch=0;outlineConnect=0;gradientColor=none;html=1;whiteSpace=wrap;fontSize=12;fontStyle=0;shape=mxgraph.aws4.group;grIcon=mxgraph.aws4.group_availability_zone;strokeColor=#545B64;fillColor=none;verticalAlign=top;align=left;spacingLeft=30;fontColor=#545B64;dashed=1;" vertex="1" parent="1">
          <mxGeometry x="39" y="880" width="1081" height="380" as="geometry" />
        </mxCell>
        <mxCell id="vkCUaWgb7GZXVAcVjA3E-26" value="Private subnet" style="points=[[0,0],[0.25,0],[0.5,0],[0.75,0],[1,0],[1,0.25],[1,0.5],[1,0.75],[1,1],[0.75,1],[0.5,1],[0.25,1],[0,1],[0,0.75],[0,0.5],[0,0.25]];outlineConnect=0;gradientColor=none;html=1;whiteSpace=wrap;fontSize=12;fontStyle=0;shape=mxgraph.aws4.group;grIcon=mxgraph.aws4.group_security_group;grStroke=0;strokeColor=#147EBA;fillColor=#E6F2F8;verticalAlign=top;align=left;spacingLeft=30;fontColor=#147EBA;dashed=0;" vertex="1" parent="1">
          <mxGeometry x="200" y="940" width="874" height="290" as="geometry" />
        </mxCell>
        <mxCell id="vkCUaWgb7GZXVAcVjA3E-23" value="Availability zone" style="sketch=0;outlineConnect=0;gradientColor=none;html=1;whiteSpace=wrap;fontSize=12;fontStyle=0;shape=mxgraph.aws4.group;grIcon=mxgraph.aws4.group_availability_zone;strokeColor=#545B64;fillColor=none;verticalAlign=top;align=left;spacingLeft=30;fontColor=#545B64;dashed=1;" vertex="1" parent="1">
          <mxGeometry x="70" y="10" width="1099" height="849" as="geometry" />
        </mxCell>
        <mxCell id="_OcU6w5XzlBbNJ40GL1S-23" value="VPC" style="sketch=0;outlineConnect=0;gradientColor=none;html=1;whiteSpace=wrap;fontSize=12;fontStyle=0;shape=mxgraph.aws4.group;grIcon=mxgraph.aws4.group_vpc;strokeColor=#879196;fillColor=none;verticalAlign=top;align=left;spacingLeft=30;fontColor=#879196;dashed=0;" parent="1" vertex="1">
          <mxGeometry x="1410" y="40" width="1060" height="780" as="geometry" />
        </mxCell>
        <mxCell id="_OcU6w5XzlBbNJ40GL1S-3" value="Public subnet" style="points=[[0,0],[0.25,0],[0.5,0],[0.75,0],[1,0],[1,0.25],[1,0.5],[1,0.75],[1,1],[0.75,1],[0.5,1],[0.25,1],[0,1],[0,0.75],[0,0.5],[0,0.25]];outlineConnect=0;gradientColor=none;html=1;whiteSpace=wrap;fontSize=12;fontStyle=0;shape=mxgraph.aws4.group;grIcon=mxgraph.aws4.group_security_group;grStroke=0;strokeColor=#248814;fillColor=#E9F3E6;verticalAlign=top;align=left;spacingLeft=30;fontColor=#248814;dashed=0;" parent="1" vertex="1">
          <mxGeometry x="200" y="40" width="940" height="270" as="geometry" />
        </mxCell>
        <mxCell id="_OcU6w5XzlBbNJ40GL1S-5" value="Private subnet" style="points=[[0,0],[0.25,0],[0.5,0],[0.75,0],[1,0],[1,0.25],[1,0.5],[1,0.75],[1,1],[0.75,1],[0.5,1],[0.25,1],[0,1],[0,0.75],[0,0.5],[0,0.25]];outlineConnect=0;gradientColor=none;html=1;whiteSpace=wrap;fontSize=12;fontStyle=0;shape=mxgraph.aws4.group;grIcon=mxgraph.aws4.group_security_group;grStroke=0;strokeColor=#147EBA;fillColor=#E6F2F8;verticalAlign=top;align=left;spacingLeft=30;fontColor=#147EBA;dashed=0;" parent="1" vertex="1">
          <mxGeometry x="200" y="510" width="940" height="290" as="geometry" />
        </mxCell>
        <mxCell id="vkCUaWgb7GZXVAcVjA3E-2" style="edgeStyle=orthogonalEdgeStyle;rounded=0;orthogonalLoop=1;jettySize=auto;html=1;" edge="1" parent="1" source="_OcU6w5XzlBbNJ40GL1S-6" target="_OcU6w5XzlBbNJ40GL1S-18">
          <mxGeometry relative="1" as="geometry" />
        </mxCell>
        <mxCell id="_OcU6w5XzlBbNJ40GL1S-6" value="" style="sketch=0;outlineConnect=0;fontColor=#232F3E;gradientColor=none;fillColor=#232F3E;strokeColor=none;dashed=0;verticalLabelPosition=bottom;verticalAlign=top;align=center;html=1;fontSize=12;fontStyle=0;aspect=fixed;pointerEvents=1;shape=mxgraph.aws4.user;" parent="1" vertex="1">
          <mxGeometry x="-350" y="663.5" width="78" height="78" as="geometry" />
        </mxCell>
        <mxCell id="vkCUaWgb7GZXVAcVjA3E-15" style="edgeStyle=orthogonalEdgeStyle;rounded=0;orthogonalLoop=1;jettySize=auto;html=1;" edge="1" parent="1" source="_OcU6w5XzlBbNJ40GL1S-7" target="_OcU6w5XzlBbNJ40GL1S-8">
          <mxGeometry relative="1" as="geometry" />
        </mxCell>
        <mxCell id="vkCUaWgb7GZXVAcVjA3E-16" style="edgeStyle=orthogonalEdgeStyle;rounded=0;orthogonalLoop=1;jettySize=auto;html=1;" edge="1" parent="1" source="_OcU6w5XzlBbNJ40GL1S-7" target="_OcU6w5XzlBbNJ40GL1S-12">
          <mxGeometry relative="1" as="geometry" />
        </mxCell>
        <mxCell id="_OcU6w5XzlBbNJ40GL1S-7" value="" style="sketch=0;points=[[0,0,0],[0.25,0,0],[0.5,0,0],[0.75,0,0],[1,0,0],[0,1,0],[0.25,1,0],[0.5,1,0],[0.75,1,0],[1,1,0],[0,0.25,0],[0,0.5,0],[0,0.75,0],[1,0.25,0],[1,0.5,0],[1,0.75,0]];outlineConnect=0;fontColor=#232F3E;gradientColor=#F78E04;gradientDirection=north;fillColor=#D05C17;strokeColor=#ffffff;dashed=0;verticalLabelPosition=bottom;verticalAlign=top;align=center;html=1;fontSize=12;fontStyle=0;aspect=fixed;shape=mxgraph.aws4.resourceIcon;resIcon=mxgraph.aws4.ec2;" parent="1" vertex="1">
          <mxGeometry x="440" y="185.5" width="78" height="78" as="geometry" />
        </mxCell>
        <mxCell id="_OcU6w5XzlBbNJ40GL1S-8" value="" style="outlineConnect=0;dashed=0;verticalLabelPosition=bottom;verticalAlign=top;align=center;html=1;shape=mxgraph.aws3.rds;fillColor=#2E73B8;gradientColor=none;" parent="1" vertex="1">
          <mxGeometry x="619" y="70" width="72" height="81" as="geometry" />
        </mxCell>
        <mxCell id="_OcU6w5XzlBbNJ40GL1S-9" value="Region" style="points=[[0,0],[0.25,0],[0.5,0],[0.75,0],[1,0],[1,0.25],[1,0.5],[1,0.75],[1,1],[0.75,1],[0.5,1],[0.25,1],[0,1],[0,0.75],[0,0.5],[0,0.25]];outlineConnect=0;gradientColor=none;html=1;whiteSpace=wrap;fontSize=12;fontStyle=0;shape=mxgraph.aws4.group;grIcon=mxgraph.aws4.group_region;strokeColor=#147EBA;fillColor=none;verticalAlign=top;align=left;spacingLeft=30;fontColor=#147EBA;dashed=1;" parent="1" vertex="1">
          <mxGeometry x="1360" width="1180" height="840" as="geometry" />
        </mxCell>
        <mxCell id="vkCUaWgb7GZXVAcVjA3E-14" style="edgeStyle=orthogonalEdgeStyle;rounded=0;orthogonalLoop=1;jettySize=auto;html=1;" edge="1" parent="1" source="_OcU6w5XzlBbNJ40GL1S-10" target="_OcU6w5XzlBbNJ40GL1S-7">
          <mxGeometry relative="1" as="geometry" />
        </mxCell>
        <mxCell id="_OcU6w5XzlBbNJ40GL1S-10" value="" style="outlineConnect=0;dashed=0;verticalLabelPosition=bottom;verticalAlign=top;align=center;html=1;shape=mxgraph.aws3.classic_load_balancer;fillColor=#F58536;gradientColor=none;" parent="1" vertex="1">
          <mxGeometry x="500" y="374" width="69" height="72" as="geometry" />
        </mxCell>
        <mxCell id="_OcU6w5XzlBbNJ40GL1S-11" value="" style="outlineConnect=0;dashed=0;verticalLabelPosition=bottom;verticalAlign=top;align=center;html=1;shape=mxgraph.aws3.auto_scaling;fillColor=#F58534;gradientColor=none;" parent="1" vertex="1">
          <mxGeometry x="640.5" y="369.5" width="79.5" height="76.5" as="geometry" />
        </mxCell>
        <mxCell id="_OcU6w5XzlBbNJ40GL1S-12" value="" style="outlineConnect=0;dashed=0;verticalLabelPosition=bottom;verticalAlign=top;align=center;html=1;shape=mxgraph.aws3.bucket_with_objects;fillColor=#E05243;gradientColor=none;" parent="1" vertex="1">
          <mxGeometry x="880" y="193.75" width="60" height="61.5" as="geometry" />
        </mxCell>
        <mxCell id="_OcU6w5XzlBbNJ40GL1S-13" value="" style="outlineConnect=0;dashed=0;verticalLabelPosition=bottom;verticalAlign=top;align=center;html=1;shape=mxgraph.aws3.bucket_with_objects;fillColor=#E05243;gradientColor=none;" parent="1" vertex="1">
          <mxGeometry x="720" y="624.25" width="60" height="61.5" as="geometry" />
        </mxCell>
        <mxCell id="_OcU6w5XzlBbNJ40GL1S-14" value="" style="outlineConnect=0;dashed=0;verticalLabelPosition=bottom;verticalAlign=top;align=center;html=1;shape=mxgraph.aws3.bucket_with_objects;fillColor=#E05243;gradientColor=none;" parent="1" vertex="1">
          <mxGeometry x="-90" y="680" width="60" height="61.5" as="geometry" />
        </mxCell>
        <mxCell id="vkCUaWgb7GZXVAcVjA3E-38" style="edgeStyle=orthogonalEdgeStyle;rounded=0;orthogonalLoop=1;jettySize=auto;html=1;entryX=1;entryY=0.5;entryDx=0;entryDy=0;entryPerimeter=0;" edge="1" parent="1" source="_OcU6w5XzlBbNJ40GL1S-15" target="vkCUaWgb7GZXVAcVjA3E-28">
          <mxGeometry relative="1" as="geometry" />
        </mxCell>
        <mxCell id="_OcU6w5XzlBbNJ40GL1S-15" value="" style="outlineConnect=0;dashed=0;verticalLabelPosition=bottom;verticalAlign=top;align=center;html=1;shape=mxgraph.aws3.rds;fillColor=#2E73B8;gradientColor=none;" parent="1" vertex="1">
          <mxGeometry x="470" y="685.75" width="72" height="81" as="geometry" />
        </mxCell>
        <mxCell id="vkCUaWgb7GZXVAcVjA3E-7" style="edgeStyle=orthogonalEdgeStyle;rounded=0;orthogonalLoop=1;jettySize=auto;html=1;" edge="1" parent="1" source="_OcU6w5XzlBbNJ40GL1S-16" target="_OcU6w5XzlBbNJ40GL1S-15">
          <mxGeometry relative="1" as="geometry" />
        </mxCell>
        <mxCell id="vkCUaWgb7GZXVAcVjA3E-9" style="edgeStyle=orthogonalEdgeStyle;rounded=0;orthogonalLoop=1;jettySize=auto;html=1;" edge="1" parent="1" source="_OcU6w5XzlBbNJ40GL1S-16" target="_OcU6w5XzlBbNJ40GL1S-13">
          <mxGeometry relative="1" as="geometry" />
        </mxCell>
        <mxCell id="_OcU6w5XzlBbNJ40GL1S-16" value="" style="sketch=0;points=[[0,0,0],[0.25,0,0],[0.5,0,0],[0.75,0,0],[1,0,0],[0,1,0],[0.25,1,0],[0.5,1,0],[0.75,1,0],[1,1,0],[0,0.25,0],[0,0.5,0],[0,0.75,0],[1,0.25,0],[1,0.5,0],[1,0.75,0]];outlineConnect=0;fontColor=#232F3E;gradientColor=#F78E04;gradientDirection=north;fillColor=#D05C17;strokeColor=#ffffff;dashed=0;verticalLabelPosition=bottom;verticalAlign=top;align=center;html=1;fontSize=12;fontStyle=0;aspect=fixed;shape=mxgraph.aws4.resourceIcon;resIcon=mxgraph.aws4.ec2;" parent="1" vertex="1">
          <mxGeometry x="351" y="590" width="78" height="78" as="geometry" />
        </mxCell>
        <mxCell id="_OcU6w5XzlBbNJ40GL1S-17" value="" style="outlineConnect=0;dashed=0;verticalLabelPosition=bottom;verticalAlign=top;align=center;html=1;shape=mxgraph.aws3.iam;fillColor=#759C3E;gradientColor=none;" parent="1" vertex="1">
          <mxGeometry x="918" y="350" width="42" height="81" as="geometry" />
        </mxCell>
        <mxCell id="vkCUaWgb7GZXVAcVjA3E-3" style="edgeStyle=orthogonalEdgeStyle;rounded=0;orthogonalLoop=1;jettySize=auto;html=1;" edge="1" parent="1" source="_OcU6w5XzlBbNJ40GL1S-18" target="_OcU6w5XzlBbNJ40GL1S-14">
          <mxGeometry relative="1" as="geometry">
            <Array as="points">
              <mxPoint x="-60" y="159" />
            </Array>
          </mxGeometry>
        </mxCell>
        <mxCell id="vkCUaWgb7GZXVAcVjA3E-4" style="edgeStyle=orthogonalEdgeStyle;rounded=0;orthogonalLoop=1;jettySize=auto;html=1;" edge="1" parent="1" source="_OcU6w5XzlBbNJ40GL1S-18" target="_OcU6w5XzlBbNJ40GL1S-20">
          <mxGeometry relative="1" as="geometry">
            <Array as="points">
              <mxPoint x="90" y="159" />
              <mxPoint x="90" y="423" />
            </Array>
          </mxGeometry>
        </mxCell>
        <mxCell id="vkCUaWgb7GZXVAcVjA3E-17" style="edgeStyle=orthogonalEdgeStyle;rounded=0;orthogonalLoop=1;jettySize=auto;html=1;startArrow=none;" edge="1" parent="1" source="_OcU6w5XzlBbNJ40GL1S-1" target="_OcU6w5XzlBbNJ40GL1S-32">
          <mxGeometry relative="1" as="geometry">
            <Array as="points">
              <mxPoint x="1300" y="-40" />
              <mxPoint x="1300" y="588" />
            </Array>
          </mxGeometry>
        </mxCell>
        <mxCell id="_OcU6w5XzlBbNJ40GL1S-18" value="" style="outlineConnect=0;dashed=0;verticalLabelPosition=bottom;verticalAlign=top;align=center;html=1;shape=mxgraph.aws3.route_53;fillColor=#F58536;gradientColor=none;" parent="1" vertex="1">
          <mxGeometry x="-346.25" y="116" width="70.5" height="85.5" as="geometry" />
        </mxCell>
        <mxCell id="vkCUaWgb7GZXVAcVjA3E-5" style="edgeStyle=orthogonalEdgeStyle;rounded=0;orthogonalLoop=1;jettySize=auto;html=1;entryX=0;entryY=0.5;entryDx=0;entryDy=0;entryPerimeter=0;startArrow=none;" edge="1" parent="1" source="vkCUaWgb7GZXVAcVjA3E-10" target="_OcU6w5XzlBbNJ40GL1S-10">
          <mxGeometry relative="1" as="geometry" />
        </mxCell>
        <mxCell id="vkCUaWgb7GZXVAcVjA3E-40" style="edgeStyle=orthogonalEdgeStyle;rounded=0;orthogonalLoop=1;jettySize=auto;html=1;" edge="1" parent="1" source="_OcU6w5XzlBbNJ40GL1S-20" target="vkCUaWgb7GZXVAcVjA3E-34">
          <mxGeometry relative="1" as="geometry" />
        </mxCell>
        <mxCell id="_OcU6w5XzlBbNJ40GL1S-20" value="" style="outlineConnect=0;dashed=0;verticalLabelPosition=bottom;verticalAlign=top;align=center;html=1;shape=mxgraph.aws3.internet_gateway;fillColor=#F58534;gradientColor=none;" parent="1" vertex="1">
          <mxGeometry x="120" y="387" width="69" height="72" as="geometry" />
        </mxCell>
        <mxCell id="_OcU6w5XzlBbNJ40GL1S-24" value="Public subnet" style="points=[[0,0],[0.25,0],[0.5,0],[0.75,0],[1,0],[1,0.25],[1,0.5],[1,0.75],[1,1],[0.75,1],[0.5,1],[0.25,1],[0,1],[0,0.75],[0,0.5],[0,0.25]];outlineConnect=0;gradientColor=none;html=1;whiteSpace=wrap;fontSize=12;fontStyle=0;shape=mxgraph.aws4.group;grIcon=mxgraph.aws4.group_security_group;grStroke=0;strokeColor=#248814;fillColor=#E9F3E6;verticalAlign=top;align=left;spacingLeft=30;fontColor=#248814;dashed=0;" parent="1" vertex="1">
          <mxGeometry x="1480" y="88" width="930" height="422" as="geometry" />
        </mxCell>
        <mxCell id="_OcU6w5XzlBbNJ40GL1S-21" value="" style="sketch=0;points=[[0,0,0],[0.25,0,0],[0.5,0,0],[0.75,0,0],[1,0,0],[0,1,0],[0.25,1,0],[0.5,1,0],[0.75,1,0],[1,1,0],[0,0.25,0],[0,0.5,0],[0,0.75,0],[1,0.25,0],[1,0.5,0],[1,0.75,0]];outlineConnect=0;fontColor=#232F3E;gradientColor=#60A337;gradientDirection=north;fillColor=#277116;strokeColor=#ffffff;dashed=0;verticalLabelPosition=bottom;verticalAlign=top;align=center;html=1;fontSize=12;fontStyle=0;aspect=fixed;shape=mxgraph.aws4.resourceIcon;resIcon=mxgraph.aws4.glacier;" parent="1" vertex="1">
          <mxGeometry x="900" y="613" width="78" height="78" as="geometry" />
        </mxCell>
        <mxCell id="vkCUaWgb7GZXVAcVjA3E-19" style="edgeStyle=orthogonalEdgeStyle;rounded=0;orthogonalLoop=1;jettySize=auto;html=1;" edge="1" parent="1" source="_OcU6w5XzlBbNJ40GL1S-29" target="_OcU6w5XzlBbNJ40GL1S-30">
          <mxGeometry relative="1" as="geometry" />
        </mxCell>
        <mxCell id="vkCUaWgb7GZXVAcVjA3E-20" style="edgeStyle=orthogonalEdgeStyle;rounded=0;orthogonalLoop=1;jettySize=auto;html=1;" edge="1" parent="1" source="_OcU6w5XzlBbNJ40GL1S-29" target="_OcU6w5XzlBbNJ40GL1S-31">
          <mxGeometry relative="1" as="geometry">
            <Array as="points">
              <mxPoint x="1645" y="410" />
              <mxPoint x="2130" y="410" />
            </Array>
          </mxGeometry>
        </mxCell>
        <mxCell id="_OcU6w5XzlBbNJ40GL1S-29" value="" style="sketch=0;points=[[0,0,0],[0.25,0,0],[0.5,0,0],[0.75,0,0],[1,0,0],[0,1,0],[0.25,1,0],[0.5,1,0],[0.75,1,0],[1,1,0],[0,0.25,0],[0,0.5,0],[0,0.75,0],[1,0.25,0],[1,0.5,0],[1,0.75,0]];outlineConnect=0;fontColor=#232F3E;gradientColor=#F78E04;gradientDirection=north;fillColor=#D05C17;strokeColor=#ffffff;dashed=0;verticalLabelPosition=bottom;verticalAlign=top;align=center;html=1;fontSize=12;fontStyle=0;aspect=fixed;shape=mxgraph.aws4.resourceIcon;resIcon=mxgraph.aws4.ec2;" parent="1" vertex="1">
          <mxGeometry x="1605.5" y="296" width="78" height="78" as="geometry" />
        </mxCell>
        <mxCell id="_OcU6w5XzlBbNJ40GL1S-30" value="" style="outlineConnect=0;dashed=0;verticalLabelPosition=bottom;verticalAlign=top;align=center;html=1;shape=mxgraph.aws3.rds;fillColor=#2E73B8;gradientColor=none;" parent="1" vertex="1">
          <mxGeometry x="1860" y="218" width="72" height="81" as="geometry" />
        </mxCell>
        <mxCell id="_OcU6w5XzlBbNJ40GL1S-31" value="" style="outlineConnect=0;dashed=0;verticalLabelPosition=bottom;verticalAlign=top;align=center;html=1;shape=mxgraph.aws3.bucket_with_objects;fillColor=#E05243;gradientColor=none;" parent="1" vertex="1">
          <mxGeometry x="2100" y="210" width="60" height="61.5" as="geometry" />
        </mxCell>
        <mxCell id="vkCUaWgb7GZXVAcVjA3E-18" style="edgeStyle=orthogonalEdgeStyle;rounded=0;orthogonalLoop=1;jettySize=auto;html=1;" edge="1" parent="1" source="_OcU6w5XzlBbNJ40GL1S-32" target="_OcU6w5XzlBbNJ40GL1S-29">
          <mxGeometry relative="1" as="geometry" />
        </mxCell>
        <mxCell id="_OcU6w5XzlBbNJ40GL1S-32" value="" style="outlineConnect=0;dashed=0;verticalLabelPosition=bottom;verticalAlign=top;align=center;html=1;shape=mxgraph.aws3.classic_load_balancer;fillColor=#F58536;gradientColor=none;" parent="1" vertex="1">
          <mxGeometry x="1610" y="552.25" width="69" height="72" as="geometry" />
        </mxCell>
        <mxCell id="_OcU6w5XzlBbNJ40GL1S-34" value="" style="outlineConnect=0;dashed=0;verticalLabelPosition=bottom;verticalAlign=top;align=center;html=1;shape=mxgraph.aws3.auto_scaling;fillColor=#F58534;gradientColor=none;" parent="1" vertex="1">
          <mxGeometry x="1800" y="552.25" width="79.5" height="76.5" as="geometry" />
        </mxCell>
        <mxCell id="_OcU6w5XzlBbNJ40GL1S-35" value="" style="sketch=0;points=[[0,0,0],[0.25,0,0],[0.5,0,0],[0.75,0,0],[1,0,0],[0,1,0],[0.25,1,0],[0.5,1,0],[0.75,1,0],[1,1,0],[0,0.25,0],[0,0.5,0],[0,0.75,0],[1,0.25,0],[1,0.5,0],[1,0.75,0]];outlineConnect=0;fontColor=#232F3E;gradientColor=#FF4F8B;gradientDirection=north;fillColor=#BC1356;strokeColor=#ffffff;dashed=0;verticalLabelPosition=bottom;verticalAlign=top;align=center;html=1;fontSize=12;fontStyle=0;aspect=fixed;shape=mxgraph.aws4.resourceIcon;resIcon=mxgraph.aws4.sns;" parent="1" vertex="1">
          <mxGeometry x="1040" y="360" width="78" height="78" as="geometry" />
        </mxCell>
        <mxCell id="vkCUaWgb7GZXVAcVjA3E-12" style="edgeStyle=orthogonalEdgeStyle;rounded=0;orthogonalLoop=1;jettySize=auto;html=1;" edge="1" parent="1" source="vkCUaWgb7GZXVAcVjA3E-10" target="_OcU6w5XzlBbNJ40GL1S-16">
          <mxGeometry relative="1" as="geometry" />
        </mxCell>
        <mxCell id="vkCUaWgb7GZXVAcVjA3E-13" style="edgeStyle=orthogonalEdgeStyle;rounded=0;orthogonalLoop=1;jettySize=auto;html=1;" edge="1" parent="1" source="vkCUaWgb7GZXVAcVjA3E-10" target="_OcU6w5XzlBbNJ40GL1S-21">
          <mxGeometry relative="1" as="geometry">
            <Array as="points">
              <mxPoint x="364" y="490" />
              <mxPoint x="939" y="490" />
            </Array>
          </mxGeometry>
        </mxCell>
        <mxCell id="vkCUaWgb7GZXVAcVjA3E-10" value="" style="outlineConnect=0;dashed=0;verticalLabelPosition=bottom;verticalAlign=top;align=center;html=1;shape=mxgraph.aws3.vpc_nat_gateway;fillColor=#F58534;gradientColor=none;" vertex="1" parent="1">
          <mxGeometry x="250" y="374" width="69" height="72" as="geometry" />
        </mxCell>
        <mxCell id="vkCUaWgb7GZXVAcVjA3E-11" value="" style="edgeStyle=orthogonalEdgeStyle;rounded=0;orthogonalLoop=1;jettySize=auto;html=1;entryX=0;entryY=0.5;entryDx=0;entryDy=0;entryPerimeter=0;endArrow=none;" edge="1" parent="1" source="_OcU6w5XzlBbNJ40GL1S-20" target="vkCUaWgb7GZXVAcVjA3E-10">
          <mxGeometry relative="1" as="geometry">
            <mxPoint x="189.00000000000045" y="423" as="sourcePoint" />
            <mxPoint x="360" y="410" as="targetPoint" />
          </mxGeometry>
        </mxCell>
        <mxCell id="vkCUaWgb7GZXVAcVjA3E-21" style="edgeStyle=orthogonalEdgeStyle;rounded=0;orthogonalLoop=1;jettySize=auto;html=1;" edge="1" parent="1" source="_OcU6w5XzlBbNJ40GL1S-8" target="_OcU6w5XzlBbNJ40GL1S-30">
          <mxGeometry relative="1" as="geometry" />
        </mxCell>
        <mxCell id="vkCUaWgb7GZXVAcVjA3E-22" value="" style="sketch=0;points=[[0,0,0],[0.25,0,0],[0.5,0,0],[0.75,0,0],[1,0,0],[0,1,0],[0.25,1,0],[0.5,1,0],[0.75,1,0],[1,1,0],[0,0.25,0],[0,0.5,0],[0,0.75,0],[1,0.25,0],[1,0.5,0],[1,0.75,0]];outlineConnect=0;fontColor=#232F3E;gradientColor=#F78E04;gradientDirection=north;fillColor=#D05C17;strokeColor=#ffffff;dashed=0;verticalLabelPosition=bottom;verticalAlign=top;align=center;html=1;fontSize=12;fontStyle=0;aspect=fixed;shape=mxgraph.aws4.resourceIcon;resIcon=mxgraph.aws4.lambda;" vertex="1" parent="1">
          <mxGeometry x="780" y="360" width="78" height="78" as="geometry" />
        </mxCell>
        <mxCell id="vkCUaWgb7GZXVAcVjA3E-24" value="" style="edgeStyle=orthogonalEdgeStyle;rounded=0;orthogonalLoop=1;jettySize=auto;html=1;endArrow=none;" edge="1" parent="1" source="_OcU6w5XzlBbNJ40GL1S-18" target="_OcU6w5XzlBbNJ40GL1S-1">
          <mxGeometry relative="1" as="geometry">
            <mxPoint x="-311" y="116" as="sourcePoint" />
            <mxPoint x="1610" y="588" as="targetPoint" />
            <Array as="points">
              <mxPoint x="-311" y="-40" />
            </Array>
          </mxGeometry>
        </mxCell>
        <mxCell id="vkCUaWgb7GZXVAcVjA3E-27" value="" style="outlineConnect=0;dashed=0;verticalLabelPosition=bottom;verticalAlign=top;align=center;html=1;shape=mxgraph.aws3.bucket_with_objects;fillColor=#E05243;gradientColor=none;" vertex="1" parent="1">
          <mxGeometry x="654" y="1054.25" width="60" height="61.5" as="geometry" />
        </mxCell>
        <mxCell id="vkCUaWgb7GZXVAcVjA3E-28" value="" style="outlineConnect=0;dashed=0;verticalLabelPosition=bottom;verticalAlign=top;align=center;html=1;shape=mxgraph.aws3.rds;fillColor=#2E73B8;gradientColor=none;" vertex="1" parent="1">
          <mxGeometry x="404" y="1115.75" width="72" height="81" as="geometry" />
        </mxCell>
        <mxCell id="vkCUaWgb7GZXVAcVjA3E-29" style="edgeStyle=orthogonalEdgeStyle;rounded=0;orthogonalLoop=1;jettySize=auto;html=1;" edge="1" parent="1" source="vkCUaWgb7GZXVAcVjA3E-30" target="vkCUaWgb7GZXVAcVjA3E-27">
          <mxGeometry relative="1" as="geometry">
            <Array as="points">
              <mxPoint x="600" y="1059" />
              <mxPoint x="600" y="1059" />
            </Array>
          </mxGeometry>
        </mxCell>
        <mxCell id="vkCUaWgb7GZXVAcVjA3E-33" style="edgeStyle=orthogonalEdgeStyle;rounded=0;orthogonalLoop=1;jettySize=auto;html=1;entryX=0;entryY=0.78;entryDx=0;entryDy=0;entryPerimeter=0;" edge="1" parent="1" source="vkCUaWgb7GZXVAcVjA3E-30" target="vkCUaWgb7GZXVAcVjA3E-28">
          <mxGeometry relative="1" as="geometry" />
        </mxCell>
        <mxCell id="vkCUaWgb7GZXVAcVjA3E-39" style="edgeStyle=orthogonalEdgeStyle;rounded=0;orthogonalLoop=1;jettySize=auto;html=1;entryX=0.5;entryY=0;entryDx=0;entryDy=0;entryPerimeter=0;" edge="1" parent="1" source="vkCUaWgb7GZXVAcVjA3E-30" target="vkCUaWgb7GZXVAcVjA3E-31">
          <mxGeometry relative="1" as="geometry" />
        </mxCell>
        <mxCell id="vkCUaWgb7GZXVAcVjA3E-30" value="" style="sketch=0;points=[[0,0,0],[0.25,0,0],[0.5,0,0],[0.75,0,0],[1,0,0],[0,1,0],[0.25,1,0],[0.5,1,0],[0.75,1,0],[1,1,0],[0,0.25,0],[0,0.5,0],[0,0.75,0],[1,0.25,0],[1,0.5,0],[1,0.75,0]];outlineConnect=0;fontColor=#232F3E;gradientColor=#F78E04;gradientDirection=north;fillColor=#D05C17;strokeColor=#ffffff;dashed=0;verticalLabelPosition=bottom;verticalAlign=top;align=center;html=1;fontSize=12;fontStyle=0;aspect=fixed;shape=mxgraph.aws4.resourceIcon;resIcon=mxgraph.aws4.ec2;" vertex="1" parent="1">
          <mxGeometry x="285" y="1020" width="78" height="78" as="geometry" />
        </mxCell>
        <mxCell id="vkCUaWgb7GZXVAcVjA3E-31" value="" style="sketch=0;points=[[0,0,0],[0.25,0,0],[0.5,0,0],[0.75,0,0],[1,0,0],[0,1,0],[0.25,1,0],[0.5,1,0],[0.75,1,0],[1,1,0],[0,0.25,0],[0,0.5,0],[0,0.75,0],[1,0.25,0],[1,0.5,0],[1,0.75,0]];outlineConnect=0;fontColor=#232F3E;gradientColor=#60A337;gradientDirection=north;fillColor=#277116;strokeColor=#ffffff;dashed=0;verticalLabelPosition=bottom;verticalAlign=top;align=center;html=1;fontSize=12;fontStyle=0;aspect=fixed;shape=mxgraph.aws4.resourceIcon;resIcon=mxgraph.aws4.glacier;" vertex="1" parent="1">
          <mxGeometry x="834" y="1043" width="78" height="78" as="geometry" />
        </mxCell>
        <mxCell id="vkCUaWgb7GZXVAcVjA3E-41" style="edgeStyle=orthogonalEdgeStyle;rounded=0;orthogonalLoop=1;jettySize=auto;html=1;entryX=0;entryY=0.5;entryDx=0;entryDy=0;entryPerimeter=0;" edge="1" parent="1" source="vkCUaWgb7GZXVAcVjA3E-34" target="vkCUaWgb7GZXVAcVjA3E-30">
          <mxGeometry relative="1" as="geometry" />
        </mxCell>
        <mxCell id="vkCUaWgb7GZXVAcVjA3E-34" value="" style="outlineConnect=0;dashed=0;verticalLabelPosition=bottom;verticalAlign=top;align=center;html=1;shape=mxgraph.aws3.vpc_nat_gateway;fillColor=#F58534;gradientColor=none;" vertex="1" parent="1">
          <mxGeometry x="120" y="960" width="69" height="72" as="geometry" />
        </mxCell>
      </root>
    </mxGraphModel>
  </diagram>
</mxfile>
